<svg xmlns="http://www.w3.org/2000/svg" viewBox="160 125 310 240" role="img" aria-label="a crate">
  <g shape-rendering="crispEdges">
    <rect x="170" y="130" width="290" height="10" fill="#5C6779"/>
    <rect x="170" y="140" width="290" height="20" fill="#4A5364"/>
    <rect x="170" y="160" width="290" height="10" fill="#39404E"/>
    <rect x="180" y="170" width="270" height="10" fill="#B8863F"/>
    <rect x="220" y="170" width="190" height="10" fill="#F0C27B"/>
    <rect x="180" y="180" width="270" height="140" fill="#2E3441"/>
    <rect x="180" y="180" width="10" height="140" fill="#3F4757"/>
    <rect x="440" y="180" width="10" height="140" fill="#3F4757"/>
    <rect x="240" y="180" width="10" height="140" fill="#262B36"/>
    <rect x="310" y="180" width="10" height="140" fill="#262B36"/>
    <rect x="380" y="180" width="10" height="140" fill="#262B36"/>
    <rect x="180" y="320" width="270" height="10" fill="#39404E"/>
    <rect x="190" y="330" width="30" height="10" fill="#262B36"/>
    <rect x="410" y="330" width="30" height="10" fill="#262B36"/>
    <rect x="310" y="210" width="30" height="10" fill="#3F4757"/>
    <rect x="300" y="220" width="10" height="10" fill="#3F4757"/>
    <rect x="310" y="220" width="30" height="10" fill="#262B36"/>
    <rect x="340" y="220" width="10" height="10" fill="#3F4757"/>
    <rect x="300" y="230" width="10" height="10" fill="#262B36"/>
    <rect x="310" y="230" width="30" height="10" fill="#F0C27B"/>
    <rect x="340" y="230" width="10" height="10" fill="#262B36"/>
    <rect x="300" y="240" width="10" height="10" fill="#262B36"/>
    <rect x="310" y="240" width="30" height="10" fill="#F0C27B"/>
    <rect x="340" y="240" width="10" height="10" fill="#262B36"/>
    <rect x="300" y="250" width="20" height="10" fill="#262B36"/>
    <rect x="320" y="250" width="10" height="10" fill="#F0C27B"/>
    <rect x="330" y="250" width="20" height="10" fill="#262B36"/>
    <rect x="300" y="260" width="10" height="10" fill="#262B36"/>
    <rect x="310" y="260" width="30" height="10" fill="#F0C27B"/>
    <rect x="340" y="260" width="10" height="10" fill="#262B36"/>
    <rect x="300" y="270" width="10" height="10" fill="#3F4757"/>
    <rect x="310" y="270" width="30" height="10" fill="#262B36"/>
    <rect x="340" y="270" width="10" height="10" fill="#3F4757"/>
    <rect x="310" y="280" width="30" height="10" fill="#3F4757"/>
    <rect x="160" y="340" width="310" height="10" fill="#16161C"/>
    <rect x="190" y="350" width="250" height="10" fill="#101015"/>
  </g>
</svg>
